<?xml version="1.0" encoding="utf-8"?>
<!-- Generator: Adobe Illustrator 26.4.1, SVG Export Plug-In . SVG Version: 6.00 Build 0)  -->
<svg version="1.1" id="Layer_1" xmlns="http://www.w3.org/2000/svg" xmlns:xlink="http://www.w3.org/1999/xlink" x="0px" y="0px"
	 viewBox="0 0 166.2 73.7" style="enable-background:new 0 0 166.2 73.7;" xml:space="preserve">
<g>
	<path d="M145.1,39.5h3.9c0.5,0,0.9-0.4,0.9-0.9v-4.2c0-0.5-0.4-0.9-0.9-0.9h-7.3l-9.8-17c-0.3-0.5-1-0.5-1.3,0l-9.8,17h-7.3
		c-0.5,0-0.9,0.4-0.9,0.9v4.2c0,0.5,0.4,0.9,0.9,0.9h3.9l-9.8,16.9c-0.3,0.5,0.1,1.1,0.6,1.1h46.1c0.6,0,0.9-0.6,0.6-1.1L145.1,39.5
		z M131.2,27.5l3.5,6h-6.9L131.2,27.5z M117.4,51.5l3.5-6l3.5-6h13.9l3.5,6l3.5,6H117.4z"/>
	<path d="M163.8,33.2c-1.7,0-3.9,1.1-4.8,3.7h-0.1l-0.2-3.3h-4.8c0.1,1.5,0.1,3.2,0.1,5.9v12h5.5v-9c0-0.4,0-0.9,0.1-1.2
		c0.4-1.7,1.8-2.8,3.8-2.8c0.6,0,1.1,0.1,1.5,0.1v-5.2C164.6,33.2,164.4,33.2,163.8,33.2z"/>
	<path d="M110.8,42.3c0-5.4-3.6-9.1-9.1-9.1c-4.9,0-8.3,2.6-9.3,7c-0.2-3.1-1.5-5.7-4.9-6.6h1.4c0,0,0,0,0,0v-3.7c0,0,0,0,0,0h-8.8
		c0,0,0,0,0,0v3.7c0,0,0,0,0,0h1.1c-1.4,0.3-2.5,0.7-3.3,1.1l0.2-0.8c-1.2-0.4-2.8-0.7-4.2-0.7c-5.6,0-9,3-9.9,7.1
		c-0.2-3.9-2.2-7.1-7.8-7.1c-2.5,0-4.5,0.5-5.9,1.1v-1c-0.4-0.1-0.7-0.1-1.2-0.1c-1.7,0-3.9,1.1-4.8,3.7H44l-0.2-3.3H39
		c0.1,1.5,0.1,3.2,0.1,5.7c-0.8-3.3-3.1-6.1-7.6-6.1c-5.1,0-7.9,3.3-8.7,7v-2.8h-9.2v4.3h3.8v5.1C17,47,16,47.2,14.7,47.2
		c-4.6,0-7.7-3-7.7-8.1c0-5.3,3.5-8,8.1-8c2.7,0,4.4,0.5,5.7,1.1l1.2-4.5c-1.2-0.6-3.6-1.2-6.8-1.2c-8.1,0-14,4.7-14,12.8
		c0,3.6,1.2,6.8,3.5,8.9c2.3,2.2,5.5,3.3,10,3.3c3.2,0,6.5-0.8,8.2-1.4v-5c0.9,4,4.2,6.5,9.2,6.5c2.4,0,4.6-0.4,6.5-1.1l-0.7-3.8
		c-1.5,0.5-3,0.7-4.9,0.7c-2.6,0-4.9-1.1-5-3.4h11.3v7.2h5.5v-9c0-0.4,0-0.9,0.1-1.2c0.4-1.7,1.8-2.8,3.8-2.8c0.6,0,1.1,0.1,1.5,0.1
		v-0.1c1.2-0.7,3.1-1.3,4.9-1.3c2.7,0,3.2,1.3,3.2,2.3v0.3c-6.3,0-10.5,2.2-10.5,6.8c0,2.8,2.2,5.5,5.8,5.5c2.1,0,3.9-0.8,5.1-2.2
		h0.1l0.3,1.8h5c-0.2-1-0.3-2.6-0.3-4.3v-1.9c0.8,3.3,3.2,5.6,6.6,6.3v2.7h3.7v-2.5c1.6-0.1,3-0.4,3.8-0.8l-0.1-0.9
		c1,1.1,2.5,1.7,4.3,1.7c2.1,0,3.9-0.8,5.1-2.2h0.1l0.3,1.8h5c-0.2-1-0.3-2.6-0.3-4.3v-1.9c1,4.2,4.5,6.7,8.9,6.7
		C106.2,51.8,110.8,48.8,110.8,42.3z M27.8,40.5c0.1-1.5,1.1-3.6,3.4-3.6c2.6,0,3.1,2.3,3.1,3.6H27.8z M58.5,44.9
		c0,0.3,0,0.7-0.1,0.9c-0.4,1.1-1.5,2-2.9,2c-1.2,0-2.2-0.7-2.2-2.1c0-2.2,2.3-2.8,5.2-2.8V44.9z M76.4,46.3c0,0.3,0,0.6,0.1,0.8
		c-0.7,0.2-1.4,0.3-2.3,0.3c-2.7,0-4.9-1.7-4.9-5c0-2.9,1.9-5,4.8-5c1.5,0,2.4,0.3,3.1,0.5l0.6-2.9l0.9,3.2c1.2-0.7,3.1-1.3,4.9-1.3
		c2.7,0,3.2,1.3,3.2,2.3v0.3C80.6,39.5,76.4,41.7,76.4,46.3z M87,44.9c0,0.3,0,0.7-0.1,0.9c-0.4,1.1-1.5,2-2.9,2
		c-1.2,0-2.2-0.7-2.2-2.1c0-2.2,2.3-2.8,5.2-2.8V44.9z M101.5,47.8c-2.4,0-3.6-2.3-3.6-5.4c0-2.6,1-5.4,3.6-5.4
		c2.5,0,3.5,2.7,3.5,5.4C105.1,45.7,103.7,47.8,101.5,47.8z"/>
</g>
</svg>
