<?xml version="1.0" encoding="utf-8"?>
<!-- Generator: Adobe Illustrator 28.0.0, SVG Export Plug-In . SVG Version: 6.00 Build 0)  -->
<svg version="1.1" id="Layer_1" xmlns="http://www.w3.org/2000/svg" xmlns:xlink="http://www.w3.org/1999/xlink" x="0px" y="0px"
	 viewBox="0 0 616.2 616.2" style="enable-background:new 0 0 616.2 616.2;" xml:space="preserve">
<g>
	<polygon points="192.8,492.1 212.4,501.8 210.1,506.4 192.8,497.8 186.4,510.7 203.6,519.3 201.5,523.6 183.2,514.4 176.3,528.2 
		210.3,545.2 234.9,495.8 199.7,478.3 	"/>
	<path d="M179.1,461.9l-13,14.8l-0.4-0.4l5.1-21.8l-16-14.1l-0.1,0.7l-10.4-16.6l-8.3,2l-9.4-14.8l5.3-6.8L121,388l-35.2,47.6
		l10.5,16.7l58.2-11l-4.1,25.3c-3.3-1-6.4-1.1-9.3-0.2c-2.9,0.8-5.5,2.5-7.8,5.1c-2.3,2.6-3.7,5.2-4.3,7.8c-0.6,2.6-0.5,5.1,0.2,7.5
		c0.7,2.4,1.8,4.7,3.5,6.9c1.7,2.2,3.5,4.2,5.5,5.9l17.9,15.7l36.4-41.5L179.1,461.9z M107.5,433.9l9.2-11l4.8,7.6L107.5,433.9z
		 M152.3,492.6l-3.3-2.9c-0.4-0.4-0.9-0.8-1.3-1.3c-0.5-0.5-0.8-1-1-1.6c-0.2-0.6-0.3-1.2-0.2-1.9c0.1-0.7,0.5-1.4,1.1-2.1
		c0.7-0.7,1.3-1.2,2.1-1.3c0.7-0.2,1.4-0.2,2.1,0c0.7,0.2,1.4,0.5,2,0.9c0.6,0.4,1.2,0.8,1.6,1.2l2.7,2.4L152.3,492.6z"/>
	<path d="M108.2,330.1c-0.3-2.5-0.8-4.9-1.7-7.2c-0.9-2.3-2.1-4.2-3.7-5.9c-1.6-1.7-3.5-2.9-5.8-3.7c-2.3-0.8-4.9-1.1-7.9-0.8
		c-3.3,0.3-5.9,1.2-7.9,2.5c-2,1.3-3.6,3-4.7,5c-1.1,2-1.8,4.2-2.1,6.7c-0.3,2.5-0.3,5.1,0,7.8l1.3,12.6l33.9-3.5L108.2,330.1z
		 M84.3,335.2l-0.3-2.5c-0.2-2.4,0.2-4.4,1.3-5.9c1.1-1.6,2.7-2.5,4.9-2.7c2.6-0.3,4.6,0.3,5.9,1.6c1.3,1.3,2.1,3.3,2.4,6l0.2,2.1
		L84.3,335.2z"/>
	<path d="M107,298.8l-4.9-2.1l0.9-10.8l5.1-1.4l1-12.4l-35,10.6l-1,12.1l32.9,16.1L107,298.8z M93.7,293.3l-8.2-3.5l8.6-2.1
		L93.7,293.3z"/>
	<path d="M82.7,203.1c1.4,2.4,3.6,4.4,6.6,6.1c2.1,1.2,4.2,1.9,6.1,2c1.9,0.2,3.7,0,5.5-0.6c1.7-0.6,3.4-1.4,5-2.4
		c1.6-1.1,3.1-2.3,4.6-3.6c1.5-1.4,2.7-2.5,3.8-3.4c1-0.9,1.9-1.5,2.6-2c0.7-0.4,1.3-0.7,1.7-0.8c0.5-0.1,0.9,0,1.4,0.3
		c0.9,0.5,1.2,1.2,1.1,2.1c-0.1,0.9-0.4,1.8-0.9,2.7c-1.1,2-2.7,3.7-4.7,5c-2,1.3-3.9,2.3-5.8,2.7l5.2,15.9c1.8-0.6,3.5-1.5,5.3-2.5
		c1.7-1,3.4-2.3,5.1-3.6c1.6-1.4,3.1-2.9,4.5-4.6c1.4-1.7,2.6-3.5,3.7-5.5c1.4-2.4,2.4-5,3-7.8c0.6-2.8,0.7-5.5,0.4-8.1
		c-0.4-2.7-1.3-5.2-2.8-7.6c-1.5-2.4-3.7-4.4-6.6-6c-2.5-1.4-4.9-2-7.1-1.9c-2.3,0.1-4.4,0.6-6.5,1.6c-2.1,1-4,2.2-5.8,3.7
		c-1.8,1.5-3.4,3-4.9,4.4c-1.5,1.4-2.6,2.3-3.4,2.9c-0.8,0.5-1.5,0.6-2.3,0.2c-0.8-0.4-1.1-1.1-1.1-2c0.1-0.9,0.4-2,1.1-3.1
		c0.7-1.3,1.9-2.5,3.4-3.7c1.6-1.2,3.4-2,5.3-2.3l-4.7-15.8c-3.7,1.2-7.1,3.1-10.2,5.7c-3.1,2.6-5.5,5.5-7.3,8.7
		c-1.3,2.4-2.4,4.9-3.1,7.6c-0.8,2.7-1,5.4-0.7,8.1C80.5,198.2,81.3,200.7,82.7,203.1z"/>
	<path d="M157,174.5l-3.9-7.6l12.2-12.6l7.8,3.6l14-14.5l-54.6-22.9l-13.7,14.2l24.5,54L157,174.5z M152.2,147.4l-6.2,6.4l-6.7-12.7
		L152.2,147.4z"/>
	<path d="M213.5,129.9c2.4-1.3,4.5-2.8,6.5-4.5c2-1.7,3.5-3.6,4.7-5.7c1.1-2.1,1.7-4.3,1.8-6.7s-0.6-4.9-2.1-7.5
		c-0.8-1.5-1.8-2.7-3-3.7c-1.2-1-2.5-1.7-3.8-2.1s-2.8-0.7-4.2-0.7c-1.4,0-2.8,0.2-4.1,0.5l-0.1-0.2c1.7-2,2.7-4.2,3.1-6.6
		c0.4-2.4-0.2-4.9-1.6-7.5c-1.5-2.8-3.4-4.7-5.6-5.7c-2.2-1-4.4-1.5-6.8-1.3c-2.4,0.1-4.7,0.7-7.1,1.6c-2.4,0.9-4.5,1.9-6.5,3
		l-19.8,11l26.7,48.3L213.5,129.9z M200.3,112c0.5-0.3,1.1-0.5,1.7-0.8c0.6-0.2,1.2-0.3,1.9-0.4c0.6,0,1.2,0.1,1.8,0.3
		c0.6,0.2,1,0.7,1.4,1.3c0.6,1.1,0.7,2.1,0.2,3.1c-0.5,1-1.4,1.9-2.6,2.6l-4.8,2.7l-3.6-6.5L200.3,112z M187,98l4-2.2
		c1.3-0.7,2.4-1,3.4-1c1,0,1.8,0.5,2.3,1.4c0.6,1.1,0.7,2.1,0.2,3c-0.4,0.9-1.2,1.7-2.4,2.3l-4.4,2.4L187,98z"/>
	<polygon points="278.4,107.5 274.6,92.5 253.5,97.9 252.2,92.9 270.9,88.2 267.3,74.2 248.6,79 247.5,74.3 267.3,69.3 263.5,54.3 
		226.7,63.7 240.4,117.2 	"/>
	<path d="M320.6,104.9c3.8-1,7.2-2.6,10.2-4.8c3-2.2,5.3-5,7.1-8.5c1.8-3.5,2.8-7.7,2.9-12.5c0.1-5.3-0.7-9.7-2.5-13.2
		c-1.8-3.5-4.1-6.4-7.1-8.5c-3-2.2-6.5-3.7-10.4-4.7c-4-0.9-8.1-1.4-12.5-1.5l-20.6-0.4l-1.1,55.2l22.1,0.4
		C312.9,106.4,316.8,106,320.6,104.9z M304.8,90.3l0.5-23.5l4.1,0.1c3.9,0.1,7,1.1,9.3,3.2c2.3,2,3.4,4.8,3.3,8.4
		c-0.1,4.3-1.3,7.4-3.7,9.2c-2.4,1.8-5.7,2.7-10.1,2.6L304.8,90.3z"/>
	<path d="M356.3,104.3c1.7,3.3,4.1,6.3,7.2,8.8c3.1,2.6,6.7,4.6,10.8,6c4.1,1.4,8.2,2.1,12.2,2c4-0.1,7.7-0.9,11.2-2.4
		c3.4-1.5,6.5-3.7,9.2-6.7c2.7-2.9,4.7-6.5,6.2-10.6c1.5-4.2,2-8.2,1.7-12.1c-0.3-3.9-1.3-7.4-3.1-10.7c-1.8-3.3-4.2-6.1-7.3-8.7
		c-3.1-2.5-6.7-4.5-10.8-5.9c-4.1-1.4-8.2-2.1-12.1-2.1c-4,0-7.7,0.8-11.1,2.2c-3.4,1.5-6.4,3.6-9.1,6.4c-2.6,2.8-4.7,6.3-6.2,10.5
		c-1.5,4.2-2.1,8.2-1.8,12.2C353.6,97.3,354.6,101,356.3,104.3z M373.7,87.7c0.6-1.7,1.4-3.1,2.4-4.3c1-1.2,2.1-2.1,3.4-2.8
		c1.2-0.6,2.6-1,4.1-1.1c1.5-0.1,2.9,0.1,4.4,0.6c1.5,0.5,2.7,1.3,3.8,2.2c1.1,1,1.9,2.1,2.5,3.4c0.6,1.3,0.9,2.7,0.9,4.3
		c0,1.6-0.3,3.2-0.8,4.9c-0.6,1.7-1.4,3.2-2.4,4.4c-1,1.2-2.2,2.2-3.5,2.9c-1.3,0.7-2.7,1.1-4.1,1.2c-1.4,0.1-2.9-0.1-4.4-0.6
		c-1.5-0.5-2.7-1.3-3.8-2.3c-1.1-1-1.9-2.2-2.4-3.5c-0.5-1.3-0.8-2.8-0.8-4.4C372.8,91.1,373.1,89.5,373.7,87.7z"/>
	<path d="M424.7,143.5l11.8-15.8l0.4,0.3l-3.4,22.1l17.1,12.8l2.2-26.3c3.3,0.7,6.4,0.6,9.3-0.5c2.9-1.1,5.3-2.9,7.3-5.7
		c2.1-2.8,3.3-5.5,3.6-8.1c0.3-2.6,0.1-5.1-0.8-7.5c-0.9-2.4-2.2-4.6-4-6.6c-1.8-2-3.8-3.9-6-5.5l-19-14.2l-33.1,44.2L424.7,143.5z
		 M449,110.8l3.5,2.6c0.5,0.3,0.9,0.7,1.4,1.2c0.5,0.5,0.9,1,1.2,1.5c0.3,0.6,0.4,1.2,0.3,1.9c-0.1,0.7-0.4,1.4-1,2.2
		c-0.6,0.8-1.2,1.3-2,1.5c-0.7,0.2-1.4,0.3-2.1,0.1c-0.7-0.1-1.4-0.4-2.1-0.7c-0.7-0.4-1.2-0.7-1.7-1.1l-2.9-2.2L449,110.8z"/>
	<rect x="453.4" y="148.4" transform="matrix(0.7551 -0.6556 0.6556 0.7551 14.3959 353.9454)" width="55.2" height="18.7"/>
	<path d="M530.2,179l-58.9,6.6l9.2,17.4l8.4-1.4l8.2,15.5l-5.8,6.3l9.4,17.8l38.7-44.8L530.2,179z M507.7,206.8l-4.2-7.9l14.2-2.4
		L507.7,206.8z"/>
	<path d="M308.1,131.5c-97.4,0-176.6,79.2-176.6,176.6s79.2,176.6,176.6,176.6s176.6-79.2,176.6-176.6S405.5,131.5,308.1,131.5z
		 M295.1,158.1v137h-137C164.4,222.4,222.4,164.4,295.1,158.1z M308.1,458.7c-78.7,0-143.4-60.6-150-137.6h163v-163
		c77,6.6,137.6,71.3,137.6,150C458.7,391.2,391.2,458.7,308.1,458.7z"/>
	<path d="M308.1,0C138.2,0,0,138.2,0,308.1s138.2,308.1,308.1,308.1S616.2,478,616.2,308.1S478,0,308.1,0z M308.1,590.2
		C152.6,590.2,26,463.7,26,308.1S152.6,26,308.1,26s282.1,126.6,282.1,282.1S463.7,590.2,308.1,590.2z"/>
</g>
</svg>
