<?xml version="1.0" encoding="utf-8"?>
<!-- Generator: Adobe Illustrator 28.0.0, SVG Export Plug-In . SVG Version: 6.00 Build 0)  -->
<svg version="1.1" id="Layer_1" xmlns="http://www.w3.org/2000/svg" xmlns:xlink="http://www.w3.org/1999/xlink" x="0px" y="0px"
	 viewBox="0 0 1506.3 743.4" style="enable-background:new 0 0 1506.3 743.4;" xml:space="preserve">
<style type="text/css">
	.st0{fill:#EFEFEF;stroke:#000000;stroke-width:1.1359;stroke-miterlimit:10;stroke-dasharray:3.4446;}
	.st1{fill:none;stroke:#000000;stroke-width:1.4644;stroke-miterlimit:10;}
	.st2{fill:none;stroke:#000000;stroke-width:1.4644;stroke-miterlimit:10;stroke-dasharray:4.395,4.395;}
	.st3{fill:none;stroke:#000000;stroke-width:1.4644;stroke-miterlimit:10;stroke-dasharray:4.3739,4.3739;}
	.st4{fill:none;stroke:#000000;stroke-width:1.4644;stroke-miterlimit:10;stroke-dasharray:4.4193,4.4193;}
	.st5{fill:none;stroke:#000000;stroke-width:3;stroke-linecap:round;stroke-linejoin:round;stroke-miterlimit:10;}
	.st6{fill:#FFFFFF;stroke:#000000;stroke-width:3;stroke-linecap:round;stroke-linejoin:round;stroke-miterlimit:10;}
	.st7{fill:#EFEFEF;stroke:#000000;stroke-width:3;stroke-linecap:round;stroke-linejoin:round;stroke-miterlimit:10;}
	.st8{stroke:#000000;stroke-width:1.3155;stroke-miterlimit:10;}
	.st9{stroke:#000000;stroke-width:1.6444;stroke-miterlimit:10;}
	.st10{fill:none;stroke:#000000;stroke-width:3.9465;stroke-miterlimit:10;}
	.st11{stroke:#000000;stroke-width:0.3289;stroke-miterlimit:10;}
	.st12{stroke:#000000;stroke-width:0.4933;stroke-miterlimit:10;}
	.st13{font-family:'UbuntuMono-Bold';}
	.st14{font-size:26.3995px;}
	.st15{letter-spacing:52;}
	.st16{font-family:'UbuntuMono-Regular';}
	.st17{font-size:13px;}
	.st18{font-size:11px;}
	.st19{font-size:15px;}
	.st20{fill:none;stroke:#000000;stroke-width:1.0224;stroke-miterlimit:10;stroke-dasharray:2,2;}
	.st21{fill:none;stroke:#000000;stroke-width:1.1359;stroke-miterlimit:10;stroke-dasharray:2,2;}
	.st22{fill:none;stroke:#000000;stroke-width:1.0677;stroke-miterlimit:10;stroke-dasharray:2,2;}
	.st23{fill:none;stroke:#000000;stroke-width:1.3161;stroke-miterlimit:10;}
	.st24{fill:none;stroke:#000000;stroke-width:1.3161;stroke-miterlimit:10;stroke-dasharray:1.983,1.983;}
	.st25{font-size:18px;}
	.st26{fill:none;stroke:#000000;stroke-width:1.7848;stroke-miterlimit:10;}
	.st27{fill:#FFFFFF;}
	.st28{fill:none;}
	.st29{fill:none;stroke:#000000;stroke-width:3;stroke-linecap:round;stroke-linejoin:round;}
</style>
<polygon class="st0" points="530.9,480.1 489.1,528.8 860.8,528.8 819.3,480.2 "/>
<polygon class="st0" points="572.4,370.5 530.6,419.3 819.3,419.3 777.5,370.5 "/>
<polygon class="st0" points="613.8,260.8 572.3,309.6 777.6,309.6 736.1,260.8 "/>
<polygon class="st0" points="489.1,589.7 447.5,638.9 902.3,638.9 860.8,589.7 "/>
<g>
	<g>
		<line class="st1" x1="1500" y1="370.5" x2="1497.8" y2="370.5"/>
		<line class="st2" x1="1493.4" y1="370.5" x2="10.1" y2="370.5"/>
		<line class="st1" x1="7.9" y1="370.5" x2="5.7" y2="370.5"/>
	</g>
</g>
<g>
	<g>
		<line class="st1" x1="373.1" y1="200.4" x2="370.9" y2="200.4"/>
		<line class="st3" x1="366.5" y1="200.4" x2="10" y2="200.4"/>
		<line class="st1" x1="7.9" y1="200.4" x2="5.7" y2="200.4"/>
	</g>
</g>
<g>
	<g>
		<line class="st1" x1="1500" y1="200.4" x2="1497.8" y2="200.4"/>
		<line class="st4" x1="1493.3" y1="200.4" x2="982.9" y2="200.4"/>
		<line class="st1" x1="980.7" y1="200.4" x2="978.5" y2="200.4"/>
	</g>
</g>
<rect x="613.8" y="199.9" class="st5" width="122.3" height="60.9"/>
<rect x="572.3" y="309.6" class="st5" width="205.4" height="60.9"/>
<rect x="530.6" y="419.3" class="st5" width="288.7" height="60.9"/>
<rect x="489.1" y="528.8" class="st5" width="371.8" height="60.9"/>
<rect x="447.5" y="638.9" class="st5" width="454.8" height="60.9"/>
<ellipse class="st6" cx="674.9" cy="108.5" rx="236.2" ry="93.9"/>
<path class="st7" d="M674.9,202.4c21.2,0,41.7-1.1,61.2-3.2l-61.2-90.7l-61.2,90.7C633.3,201.3,653.8,202.4,674.9,202.4z"/>
<path class="st8" d="M687.6,547.2c-3.6-3-9.2-2.6-12.6,0.9c-3.5-3.5-9-4-12.6-0.9c-4.7,4-4,10.4-0.7,13.8l11,11.2
	c0.6,0.6,1.5,1,2.3,1c0.9,0,1.7-0.3,2.3-1l11-11.2C691.6,557.7,692.3,551.2,687.6,547.2z M686.1,559l-11,11.2
	c-0.1,0.1-0.3,0.1-0.4,0l-11-11.2c-2.3-2.3-2.7-6.7,0.5-9.4c2.4-2,6.2-1.7,8.5,0.7l2.2,2.2l2.2-2.2c2.4-2.4,6.1-2.7,8.5-0.7
	C688.8,552.2,688.4,556.7,686.1,559z"/>
<path d="M663,171.5v6.8h8.6v6.8h6.8v-6.8h3.4c4.7,0,8.6-3.8,8.6-8.6c0-4.7-3.8-8.6-8.6-8.6h-13.7c-0.9,0-1.7-0.8-1.7-1.7
	c0-0.9,0.8-1.7,1.7-1.7h18.8V151h-8.6v-6.8h-6.8v6.8h-3.4c-4.7,0-8.6,3.8-8.6,8.6c0,4.7,3.8,8.6,8.6,8.6h13.7c0.9,0,1.7,0.8,1.7,1.7
	c0,0.9-0.8,1.7-1.7,1.7H663z"/>
<path d="M690.3,386c0-0.2-0.1-0.4-0.2-0.5c-0.1-0.1-0.1-0.2-0.2-0.3c0,0,0,0,0,0c0,0,0,0,0,0c-0.1-0.1-0.2-0.2-0.3-0.3
	c-0.1,0-0.1-0.1-0.2-0.1l-13.7-6.8c-0.5-0.2-1-0.2-1.5,0l-13.7,6.8c-0.1,0-0.1,0.1-0.2,0.1c-0.1,0.1-0.2,0.1-0.3,0.2c0,0,0,0,0,0
	c0,0,0,0,0,0c-0.1,0.1-0.2,0.2-0.3,0.3c-0.1,0.2-0.2,0.3-0.2,0.5c0,0.1,0,0.3,0,0.4c0,0,0,0,0,0v17.1c0,0.6,0.4,1.2,0.9,1.5
	l13.7,6.8c0.1,0.1,0.3,0.1,0.4,0.2c0.1,0,0.3,0,0.4,0c0,0,0,0,0,0c0.1,0,0.3,0,0.4,0c0.1,0,0.3-0.1,0.4-0.2l13.7-6.8
	c0.6-0.3,0.9-0.9,0.9-1.5v-17.1c0,0,0,0,0,0C690.3,386.2,690.3,386.1,690.3,386z M673.2,407.6l-10.3-5.1v-13.3l10.3,5.1V407.6z
	 M674.9,391.3l-9.9-4.9l9.9-4.9l9.9,4.9L674.9,391.3z M686.9,402.4l-10.3,5.1v-13.3l10.3-5.1V402.4z"/>
<g>
	<path d="M683,346.8c-1-0.3-2.5-0.4-3.2-0.6c-0.5-0.2-1.2-0.4-1.5-0.7c-0.2-0.3-0.2-2.5-0.2-2.5s0.6-0.6,0.9-1.2
		c0.2-0.6,0.4-2.4,0.4-2.4s0.6,0.2,0.8-0.9c0.2-1,0.6-1.5,0.5-2.2c-0.1-0.7-0.5-0.6-0.5-0.6s0.5-0.7,0.5-3.2c0-2.6-1.9-5.1-5.6-5.1
		c-3.6,0-5.6,2.5-5.6,5.1c0,2.5,0.5,3.2,0.5,3.2s-0.4-0.2-0.5,0.6c-0.1,0.7,0.3,1.2,0.5,2.2c0.2,1.1,0.8,0.9,0.8,0.9
		s0.2,1.7,0.4,2.4c0.2,0.6,0.9,1.2,0.9,1.2s0,2.2-0.2,2.5c-0.2,0.3-1,0.5-1.5,0.7c-0.7,0.3-2.3,0.3-3.2,0.6c-1,0.3-3.9,1.9-3.9,5.8
		h24C686.9,348.7,683.9,347.2,683,346.8z"/>
	<path d="M665.3,345.7c0.8-0.4,1.5-0.4,2.1-0.4c0,0,0.3-0.5-0.7-0.7c0,0-1.5-0.4-1.7-0.6c-0.2-0.2-0.1-1.4-0.1-1.4s2.1-0.1,2.9-0.8
		c-1.3-2-0.6-4.4-0.9-6.6c-0.3-2.2-1.5-3.5-4-3.5h0c-2.4,0-3.7,1.3-4,3.5c-0.3,2.2,0.5,4.8-0.9,6.6c0.8,0.7,2.9,0.7,2.9,0.7
		s0.1,1.2-0.1,1.4s-0.7,0.4-1,0.5c-0.8,0.2-1.6,0.4-2.2,0.6c-0.7,0.2-1.9,1.5-1.9,3.2h6.9C662.7,347.6,664,346.4,665.3,345.7z"/>
	<path d="M692.3,345.1c-0.7-0.2-1.5-0.5-2.2-0.6c-0.4-0.1-0.9-0.3-1-0.5c-0.2-0.2-0.1-1.4-0.1-1.4s2.1,0,2.9-0.7
		c-1.4-1.8-0.6-4.4-0.9-6.6c-0.3-2.2-1.6-3.5-4-3.5h0c-2.5,0-3.7,1.3-4,3.5c-0.3,2.2,0.4,4.6-0.9,6.6c0.8,0.7,2.9,0.8,2.9,0.8
		s0.1,1.2-0.1,1.4c-0.2,0.2-1.7,0.6-1.7,0.6c-1.1,0.2-0.7,0.7-0.7,0.7c0.6,0.1,1.4,0.1,2.1,0.4c1.3,0.6,2.6,1.9,2.8,2.6h6.9
		C694.3,346.6,693,345.3,692.3,345.1z"/>
</g>
<g>
	<path class="st9" d="M674.9,269.2c-8.8,0-16,7.2-16,16c0,8.8,7.2,16,16,16c8.8,0,16-7.2,16-16C690.9,276.4,683.8,269.2,674.9,269.2
		z M689.3,285.2c0,2.1-0.4,4.1-1.2,5.8l-11.6-20.1C683.6,271.7,689.3,277.8,689.3,285.2z M686.6,291.9h-23.3l11.7-20.2L686.6,291.9z
		 M673.5,270.9L661.9,291c-0.8-1.8-1.2-3.8-1.2-5.8C660.6,277.8,666.2,271.7,673.5,270.9z M674.9,299.5c-4.8,0-9-2.4-11.6-6h23.3
		C684,297.2,679.7,299.5,674.9,299.5z"/>
</g>
<circle class="st10" cx="674.9" cy="669.3" r="15"/>
<g>
	<circle cx="674.9" cy="597.5" r="3.9"/>
	<path d="M688.7,602.7h-27.5c-1.1,0-2,0.9-2,2s0.9,2,2,2h8.1c0.5,0.1,1.1,0.3,1.4,1.2c0.4,1,0.2,2.8,0,4.2l-0.3,1.8c0,0,0,0,0,0
		l-2.5,14.1c-0.2,1.1,0.5,2.1,1.6,2.3s2.1-0.5,2.3-1.6l1.7-9.8v0c0,0,0.5-2.7,1.5-2.7h0.1c1,0,1.5,2.7,1.5,2.7v0l1.7,9.8
		c0.2,1.1,1.2,1.8,2.3,1.6c1.1-0.2,1.8-1.2,1.6-2.3l-2.5-14.1c0,0,0,0,0,0l-0.3-1.8c-0.2-1.5-0.4-3.2,0-4.2c0.3-0.9,1-1.1,1.4-1.2
		h8.1c1.1,0,2-0.9,2-2S689.8,602.7,688.7,602.7z"/>
</g>
<path class="st11" d="M666.7,439.9c0,0.4,0.1,0.8,0.2,1.1c0.2,0.5,0.1,1.1-0.2,1.5s-0.9,0.7-1.4,0.7c-0.1,0-0.1,0-0.2,0
	c-1.8,0-3.3,1.5-3.3,3.3c0,0.8,0.3,1.6,0.8,2.2c0.6,0.6,0.6,1.6,0,2.2c-0.5,0.6-0.8,1.3-0.8,2.2c0,1.5,0.9,2.7,2.3,3.1
	c0.8,0.3,1.3,1.1,1.1,1.9c0,0.2-0.1,0.5-0.1,0.8c0,2.3,1.8,4.1,4.1,4.1c2.1,0,3.8-1.5,4.1-3.5c0-0.1,0-0.1,0-0.2v-19.3
	c0-1.8-1.5-3.3-3.3-3.3C668.2,436.6,666.7,438,666.7,439.9z M676.6,459.2c0,0.1,0,0.1,0,0.2c0.3,2,2,3.5,4.1,3.5
	c2.3,0,4.1-1.8,4.1-4.1c0-0.3,0-0.5-0.1-0.8c-0.2-0.8,0.3-1.6,1.1-1.9c1.3-0.4,2.3-1.7,2.3-3.1c0-0.8-0.3-1.6-0.8-2.2
	c-0.6-0.6-0.6-1.6,0-2.2c0.5-0.6,0.8-1.3,0.8-2.2c0-1.8-1.5-3.3-3.3-3.3c-0.1,0-0.1,0-0.2,0c-0.5,0-1.1-0.2-1.4-0.7
	c-0.3-0.4-0.4-1-0.2-1.5c0.1-0.3,0.2-0.7,0.2-1.1c0-1.8-1.5-3.3-3.3-3.3s-3.3,1.5-3.3,3.3V459.2z M670,433.3c2,0,3.7,0.9,4.9,2.2
	c1.2-1.4,3-2.2,4.9-2.2c3.6,0,6.6,2.9,6.6,6.6c0,0.1,0,0.1,0,0.2c2.8,0.7,4.9,3.3,4.9,6.4c0,1.2-0.3,2.3-0.9,3.3
	c0.6,1,0.9,2.1,0.9,3.3c0,2.4-1.3,4.6-3.3,5.7l0,0.1c0,4.1-3.3,7.4-7.4,7.4c-2.3,0-4.4-1.1-5.8-2.7c-1.4,1.7-3.4,2.7-5.8,2.7
	c-4.1,0-7.4-3.3-7.4-7.4l0-0.1c-2-1.1-3.3-3.3-3.3-5.7c0-1.2,0.3-2.3,0.9-3.3c-0.6-1-0.9-2.1-0.9-3.3c0-3.1,2.1-5.6,4.9-6.4
	c0-0.1,0-0.1,0-0.2C663.4,436.2,666.4,433.3,670,433.3z"/>
<g>
	<path class="st12" d="M674.9,488c-9.1,0-16.5,7.4-16.5,16.5c0,9.1,7.4,16.5,16.5,16.5c9.1,0,16.5-7.4,16.5-16.5
		C691.4,495.4,684,488,674.9,488z M674.9,517.7c-7.3,0-13.2-5.9-13.2-13.2s5.9-13.2,13.2-13.2c7.3,0,13.2,5.9,13.2,13.2
		S682.2,517.7,674.9,517.7z"/>
	<polygon class="st12" points="676.3,495.7 672.8,495.7 672.8,506.5 682.1,512.1 683.9,509.1 676.3,504.6 	"/>
</g>
<path d="M686.7,217.8v31h4.1v-31H686.7z M679.8,227.4v21.5h4.1v-21.5C683.9,227.4,679.8,227.4,679.8,227.4z M672.9,234.6v14.3h4.1
	v-14.3H672.9z M666,239.3v9.5h4.1v-9.5H666z M659.1,242.8v6.1h4.1v-6.1L659.1,242.8L659.1,242.8z"/>
<path class="st8" d="M97.2,547.2c-3.6-3-9.2-2.6-12.6,0.9c-3.5-3.5-9-4-12.6-0.9c-4.7,4-4,10.4-0.7,13.8l11,11.2
	c0.6,0.6,1.5,1,2.3,1c0.9,0,1.7-0.3,2.3-1l11-11.2C101.2,557.7,101.9,551.2,97.2,547.2z M95.7,559l-11,11.2c-0.1,0.1-0.3,0.1-0.4,0
	l-11-11.2c-2.3-2.3-2.7-6.7,0.5-9.4c2.4-2,6.2-1.7,8.5,0.7l2.2,2.2l2.2-2.2c2.4-2.4,6.1-2.7,8.5-0.7C98.4,552.2,98,556.7,95.7,559z"
	/>
<path d="M72.5,171.5v6.8h8.6v6.8h6.8v-6.8h3.4c4.7,0,8.6-3.8,8.6-8.6c0-4.7-3.8-8.6-8.6-8.6H77.7c-0.9,0-1.7-0.8-1.7-1.7
	c0-0.9,0.8-1.7,1.7-1.7h18.8V151h-8.6v-6.8h-6.8v6.8h-3.4c-4.7,0-8.6,3.8-8.6,8.6c0,4.7,3.8,8.6,8.6,8.6h13.7c0.9,0,1.7,0.8,1.7,1.7
	c0,0.9-0.8,1.7-1.7,1.7H72.5z"/>
<path d="M99.9,386c0-0.2-0.1-0.4-0.2-0.5c-0.1-0.1-0.1-0.2-0.2-0.3c0,0,0,0,0,0c0,0,0,0,0,0c-0.1-0.1-0.2-0.2-0.3-0.3
	c-0.1,0-0.1-0.1-0.2-0.1L85.3,378c-0.5-0.2-1-0.2-1.5,0l-13.7,6.8c-0.1,0-0.1,0.1-0.2,0.1c-0.1,0.1-0.2,0.1-0.3,0.2c0,0,0,0,0,0
	c0,0,0,0,0,0c-0.1,0.1-0.2,0.2-0.3,0.3c-0.1,0.2-0.2,0.3-0.2,0.5c0,0.1,0,0.3,0,0.4c0,0,0,0,0,0v17.1c0,0.6,0.4,1.2,0.9,1.5
	l13.7,6.8c0.1,0.1,0.3,0.1,0.4,0.2c0.1,0,0.3,0,0.4,0c0,0,0,0,0,0c0.1,0,0.3,0,0.4,0c0.1,0,0.3-0.1,0.4-0.2L99,405
	c0.6-0.3,0.9-0.9,0.9-1.5v-17.1c0,0,0,0,0,0C99.9,386.2,99.9,386.1,99.9,386z M82.8,407.6l-10.3-5.1v-13.3l10.3,5.1V407.6z
	 M84.5,391.3l-9.9-4.9l9.9-4.9l9.9,4.9L84.5,391.3z M96.5,402.4l-10.3,5.1v-13.3l10.3-5.1V402.4z"/>
<g>
	<path d="M92.5,346.8c-1-0.3-2.5-0.4-3.2-0.6c-0.5-0.2-1.2-0.4-1.5-0.7c-0.2-0.3-0.2-2.5-0.2-2.5s0.6-0.6,0.9-1.2
		c0.2-0.6,0.4-2.4,0.4-2.4s0.6,0.2,0.8-0.9c0.2-1,0.6-1.5,0.5-2.2c-0.1-0.7-0.5-0.6-0.5-0.6s0.5-0.7,0.5-3.2c0-2.6-1.9-5.1-5.6-5.1
		c-3.6,0-5.6,2.5-5.6,5.1c0,2.5,0.5,3.2,0.5,3.2s-0.4-0.2-0.5,0.6c-0.1,0.7,0.3,1.2,0.5,2.2c0.2,1.1,0.8,0.9,0.8,0.9
		s0.2,1.7,0.4,2.4c0.2,0.6,0.9,1.2,0.9,1.2s0,2.2-0.2,2.5c-0.2,0.3-1,0.5-1.5,0.7c-0.7,0.3-2.3,0.3-3.2,0.6c-1,0.3-3.9,1.9-3.9,5.8
		h24C96.5,348.7,93.5,347.2,92.5,346.8z"/>
	<path d="M74.9,345.7c0.8-0.4,1.5-0.4,2.1-0.4c0,0,0.3-0.5-0.7-0.7c0,0-1.5-0.4-1.7-0.6c-0.2-0.2-0.1-1.4-0.1-1.4s2.1-0.1,2.9-0.8
		c-1.3-2-0.6-4.4-0.9-6.6c-0.3-2.2-1.5-3.5-4-3.5h0c-2.4,0-3.7,1.3-4,3.5c-0.3,2.2,0.5,4.8-0.9,6.6c0.8,0.7,2.9,0.7,2.9,0.7
		s0.1,1.2-0.1,1.4c-0.2,0.2-0.7,0.4-1,0.5c-0.8,0.2-1.6,0.4-2.2,0.6c-0.7,0.2-1.9,1.5-1.9,3.2h6.9C72.3,347.6,73.6,346.4,74.9,345.7
		z"/>
	<path d="M101.9,345.1c-0.7-0.2-1.5-0.5-2.2-0.6c-0.4-0.1-0.9-0.3-1-0.5c-0.2-0.2-0.1-1.4-0.1-1.4s2.1,0,2.9-0.7
		c-1.4-1.8-0.6-4.4-0.9-6.6c-0.3-2.2-1.6-3.5-4-3.5h0c-2.5,0-3.7,1.3-4,3.5c-0.3,2.2,0.4,4.6-0.9,6.6c0.8,0.7,2.9,0.8,2.9,0.8
		s0.1,1.2-0.1,1.4c-0.2,0.2-1.7,0.6-1.7,0.6c-1.1,0.2-0.7,0.7-0.7,0.7c0.6,0.1,1.4,0.1,2.1,0.4c1.3,0.6,2.6,1.9,2.8,2.6h6.9
		C103.9,346.6,102.6,345.3,101.9,345.1z"/>
</g>
<g>
	<path class="st9" d="M84.5,269.2c-8.8,0-16,7.2-16,16c0,8.8,7.2,16,16,16c8.8,0,16-7.2,16-16C100.5,276.4,93.3,269.2,84.5,269.2z
		 M98.9,285.2c0,2.1-0.4,4.1-1.2,5.8L86,270.9C93.2,271.7,98.9,277.8,98.9,285.2z M96.2,291.9H72.9l11.7-20.2L96.2,291.9z M83,270.9
		L71.4,291c-0.8-1.8-1.2-3.8-1.2-5.8C70.2,277.8,75.8,271.7,83,270.9z M84.5,299.5c-4.8,0-9-2.4-11.6-6h23.3
		C93.6,297.2,89.3,299.5,84.5,299.5z"/>
</g>
<circle class="st10" cx="84.5" cy="669.3" r="15"/>
<g>
	<circle cx="84.5" cy="597.5" r="3.9"/>
	<path d="M98.3,602.7H70.8c-1.1,0-2,0.9-2,2s0.9,2,2,2h8.1c0.5,0.1,1.1,0.3,1.4,1.2c0.4,1,0.2,2.8,0,4.2l-0.3,1.8c0,0,0,0,0,0
		l-2.5,14.1c-0.2,1.1,0.5,2.1,1.6,2.3c1.1,0.2,2.1-0.5,2.3-1.6l1.7-9.8v0c0,0,0.5-2.7,1.5-2.7h0.1c1,0,1.5,2.7,1.5,2.7v0l1.7,9.8
		c0.2,1.1,1.2,1.8,2.3,1.6c1.1-0.2,1.8-1.2,1.6-2.3l-2.5-14.1c0,0,0,0,0,0l-0.3-1.8c-0.2-1.5-0.4-3.2,0-4.2c0.3-0.9,1-1.1,1.4-1.2
		h8.1c1.1,0,2-0.9,2-2S99.4,602.7,98.3,602.7z"/>
</g>
<path class="st11" d="M76.3,439.9c0,0.4,0.1,0.8,0.2,1.1c0.2,0.5,0.1,1.1-0.2,1.5c-0.3,0.4-0.9,0.7-1.4,0.7c-0.1,0-0.1,0-0.2,0
	c-1.8,0-3.3,1.5-3.3,3.3c0,0.8,0.3,1.6,0.8,2.2c0.6,0.6,0.6,1.6,0,2.2c-0.5,0.6-0.8,1.3-0.8,2.2c0,1.5,0.9,2.7,2.3,3.1
	c0.8,0.3,1.3,1.1,1.1,1.9c0,0.2-0.1,0.5-0.1,0.8c0,2.3,1.8,4.1,4.1,4.1c2.1,0,3.8-1.5,4.1-3.5c0-0.1,0-0.1,0-0.2v-19.3
	c0-1.8-1.5-3.3-3.3-3.3C77.8,436.6,76.3,438,76.3,439.9z M86.2,459.2c0,0.1,0,0.1,0,0.2c0.3,2,2,3.5,4.1,3.5c2.3,0,4.1-1.8,4.1-4.1
	c0-0.3,0-0.5-0.1-0.8c-0.2-0.8,0.3-1.6,1.1-1.9c1.3-0.4,2.3-1.7,2.3-3.1c0-0.8-0.3-1.6-0.8-2.2c-0.6-0.6-0.6-1.6,0-2.2
	c0.5-0.6,0.8-1.3,0.8-2.2c0-1.8-1.5-3.3-3.3-3.3c-0.1,0-0.1,0-0.2,0c-0.5,0-1.1-0.2-1.4-0.7c-0.3-0.4-0.4-1-0.2-1.5
	c0.1-0.3,0.2-0.7,0.2-1.1c0-1.8-1.5-3.3-3.3-3.3c-1.8,0-3.3,1.5-3.3,3.3V459.2z M79.6,433.3c2,0,3.7,0.9,4.9,2.2
	c1.2-1.4,3-2.2,4.9-2.2c3.6,0,6.6,2.9,6.6,6.6c0,0.1,0,0.1,0,0.2c2.8,0.7,4.9,3.3,4.9,6.4c0,1.2-0.3,2.3-0.9,3.3
	c0.6,1,0.9,2.1,0.9,3.3c0,2.4-1.3,4.6-3.3,5.7l0,0.1c0,4.1-3.3,7.4-7.4,7.4c-2.3,0-4.4-1.1-5.8-2.7c-1.4,1.7-3.4,2.7-5.8,2.7
	c-4.1,0-7.4-3.3-7.4-7.4l0-0.1c-2-1.1-3.3-3.3-3.3-5.7c0-1.2,0.3-2.3,0.9-3.3c-0.6-1-0.9-2.1-0.9-3.3c0-3.1,2.1-5.6,4.9-6.4
	c0-0.1,0-0.1,0-0.2C73,436.2,76,433.3,79.6,433.3z"/>
<g>
	<path class="st12" d="M84.5,488c-9.1,0-16.5,7.4-16.5,16.5c0,9.1,7.4,16.5,16.5,16.5c9.1,0,16.5-7.4,16.5-16.5
		C101,495.4,93.6,488,84.5,488z M84.5,517.7c-7.3,0-13.2-5.9-13.2-13.2s5.9-13.2,13.2-13.2s13.2,5.9,13.2,13.2
		S91.8,517.7,84.5,517.7z"/>
	<polygon class="st12" points="85.9,495.7 82.3,495.7 82.3,506.5 91.7,512.1 93.5,509.1 85.9,504.6 	"/>
</g>
<path d="M96.2,213.8v31h4.1v-31H96.2z M89.3,223.4v21.5h4.1v-21.5C93.5,223.4,89.3,223.4,89.3,223.4z M82.4,230.6v14.3h4.1v-14.3
	H82.4z M75.5,235.3v9.5h4.1v-9.5H75.5z M68.7,238.8v6.1h4.1v-6.1L68.7,238.8L68.7,238.8z"/>
<polygon class="st5" points="735.9,260.7 674.9,260.8 613.9,260.7 572.1,309.6 658.7,309.6 691.2,309.6 777.8,309.6 "/>
<polygon class="st5" points="777.5,370.5 639.5,370.5 572.4,370.5 530.6,419.4 618.5,419.4 649.6,419.4 819.3,419.4 "/>
<polygon class="st5" points="819,480.1 601.1,480.1 530.9,480.1 489.1,528.9 579.5,528.9 608.1,528.9 860.8,528.9 "/>
<polygon class="st5" points="860.5,589.7 559.8,589.7 489.4,589.7 447.5,638.5 530.6,638.5 566.6,638.5 902.3,638.5 "/>
<text transform="matrix(1 0 0 1 36.4631 678.2981)"><tspan x="0" y="0" class="st13 st14">0</tspan><tspan x="13.2" y="0" class="st13 st14 st15">	</tspan><tspan x="79.2" y="0" class="st13 st14">DEUS</tspan></text>
<text transform="matrix(1 0 0 1 36.4631 622.636)"><tspan x="0" y="0" class="st13 st14">1</tspan><tspan x="13.2" y="0" class="st13 st14 st15">	</tspan><tspan x="79.2" y="0" class="st13 st14">VIDA</tspan></text>
<text transform="matrix(1 0 0 1 36.4631 566.9738)"><tspan x="0" y="0" class="st13 st14">2</tspan><tspan x="13.2" y="0" class="st13 st14 st15">	</tspan><tspan x="79.2" y="0" class="st13 st14">RELAÇÕES</tspan></text>
<text transform="matrix(1 0 0 1 36.4631 513.3112)"><tspan x="0" y="0" class="st13 st14">3</tspan><tspan x="13.2" y="0" class="st13 st14 st15">	</tspan><tspan x="79.2" y="0" class="st13 st14">TEMPO</tspan></text>
<text transform="matrix(1 0 0 1 36.4631 458.5714)"><tspan x="0" y="0" class="st13 st14">4</tspan><tspan x="13.2" y="0" class="st13 st14 st15">	</tspan><tspan x="79.2" y="0" class="st13 st14">CONHECIMENTO</tspan></text>
<text transform="matrix(1 0 0 1 36.4631 403.9863)"><tspan x="0" y="0" class="st13 st14">5</tspan><tspan x="13.2" y="0" class="st13 st14 st15">	</tspan><tspan x="79.2" y="0" class="st13 st14">PRODUTO</tspan></text>
<text transform="matrix(1 0 0 1 36.4631 349.3241)"><tspan x="0" y="0" class="st13 st14">6</tspan><tspan x="13.2" y="0" class="st13 st14 st15">	</tspan><tspan x="79.2" y="0" class="st13 st14">EQUIPE</tspan></text>
<text transform="matrix(1 0 0 1 36.4631 294.5267)"><tspan x="0" y="0" class="st13 st14">7</tspan><tspan x="13.2" y="0" class="st13 st14 st15">	</tspan><tspan x="79.2" y="0" class="st13 st14">NEGÓCIO</tspan></text>
<text transform="matrix(1 0 0 1 36.4631 238.3577)"><tspan x="0" y="0" class="st13 st14">8</tspan><tspan x="13.2" y="0" class="st13 st14 st15">	</tspan><tspan x="79.2" y="0" class="st13 st14">INVESTIMENTOS</tspan></text>
<text transform="matrix(1 0 0 1 36.4631 175.3367)"><tspan x="0" y="0" class="st13 st14">9</tspan><tspan x="13.2" y="0" class="st13 st14 st15">	</tspan><tspan x="79.2" y="0" class="st13 st14">LIBERDADE</tspan></text>
<text transform="matrix(1 0 0 1 1341.5575 114.3704)" class="st13 st14">PRÓSPERA</text>
<text transform="matrix(1 0 0 1 1118.9479 114.3705)" class="st13 st14">MISERÁVEL</text>
<text transform="matrix(1 0 0 1 36.4631 100.4933)" class="st13 st14">ESCADA DA LIBERDADE</text>
<text transform="matrix(1 0 0 1 602.3101 80.7645)" class="st13 st14">REGRA 90/10</text>
<text transform="matrix(1 0 0 1 547.1985 616.4804)" class="st16 st17">Postergar</text>
<text transform="matrix(1 0 0 1 568.0271 503.901)"><tspan x="0" y="0" class="st16 st17">Vender</tspan><tspan x="0.2" y="13.2" class="st16 st18">(tempo)</tspan></text>
<text transform="matrix(1 0 0 1 548.6968 727.0898)" class="st16 st17">Morrer</text>
<text transform="matrix(1 0 0 1 563.8988 398.338)" class="st16 st17">Desperdiçar</text>
<text transform="matrix(1 0 0 1 606.7479 285.1591)" class="st16 st17">Avareza</text>
<text transform="matrix(1 0 0 1 1353.1064 499.9618)"><tspan x="0" y="0" class="st16 st19">TROCA TEMPO</tspan><tspan x="-18.8" y="18" class="st16 st19">POR CONHECIMENTO</tspan></text>
<text transform="matrix(1 0 0 1 1137.0961 499.9618)"><tspan x="0" y="0" class="st16 st19">TROCA TEMPO</tspan><tspan x="-3.8" y="18" class="st16 st19">POR DINHEIRO</tspan></text>
<text transform="matrix(1 0 0 1 1330.6064 554.2289)"><tspan x="0" y="0" class="st16 st19">SEGUE EM FRENTE E </tspan><tspan x="-11.2" y="18" class="st16 st19">PASSA O AMOR ADIANTE</tspan></text>
<text transform="matrix(1 0 0 1 1095.8461 554.2289)"><tspan x="0" y="0" class="st16 st19">FICA PRESO A SEUS PAIS</tspan><tspan x="-3.8" y="18" class="st16 st19">E TENTA MUDAR O PASSADO</tspan></text>
<text transform="matrix(1 0 0 1 1323.1064 610.1851)"><tspan x="0" y="0" class="st16 st19">RESPONSÁVEL COM SUA</tspan><tspan x="-7.5" y="18" class="st16 st19">SAÚDE FÍSICA E MENTAL</tspan></text>
<text transform="matrix(1 0 0 1 1099.5961 610.1851)"><tspan x="0" y="0" class="st16 st19">POSSUI VÍCIOS E BUSCA </tspan><tspan x="-11.2" y="18" class="st16 st19">PRAZERES AUTODESTRUTIVOS</tspan></text>
<text transform="matrix(1 0 0 1 1315.6064 661.6233)"><tspan x="0" y="0" class="st16 st19">SABE QUE É IMPERFEITO </tspan><tspan x="0" y="18" class="st16 st19">MAS BUSCA A VERDADE E </tspan><tspan x="-7.5" y="36" class="st16 st19">A SEGUE COM HONESTIDADE</tspan></text>
<text transform="matrix(1 0 0 1 1095.8461 661.6233)"><tspan x="0" y="0" class="st16 st19">QUER BRILHAR AOS OLHOS</tspan><tspan x="3.8" y="18" class="st16 st19">DOS OUTROS E SE AUTO- </tspan><tspan x="3.8" y="36" class="st16 st19">ENGANA POR IGNORÂNCIA</tspan></text>
<text transform="matrix(1 0 0 1 1338.1064 443.6573)"><tspan x="0" y="0" class="st16 st19">ESTUDA PARA SER</tspan><tspan x="3.8" y="18" class="st16 st19">BOM NO QUE FAZ</tspan></text>
<text transform="matrix(1 0 0 1 1137.0961 443.6573)"><tspan x="0" y="0" class="st16 st19">ESTUDA PARA </tspan><tspan x="-7.5" y="18" class="st16 st19">PASSAR DE ANO</tspan></text>
<text transform="matrix(1 0 0 1 1308.1064 390.5056)"><tspan x="0" y="0" class="st16 st19">VENDE COISAS LUCRATIVAS </tspan><tspan x="22.5" y="18" class="st16 st19">E BUSCA PROSPERAR</tspan></text>
<text transform="matrix(1 0 0 1 1118.3461 390.5056)"><tspan x="0" y="0" class="st16 st19">VENDE A SI MESMO</tspan><tspan x="3.8" y="18" class="st16 st19">E BUSCA ELOGIOS</tspan></text>
<text transform="matrix(1 0 0 1 1304.3564 336.7606)"><tspan x="0" y="0" class="st16 st19">APROXIMA-SE DOS MELHORES </tspan><tspan x="15" y="18" class="st16 st19">E SABE RECONHECÊ-lOS</tspan></text>
<text transform="matrix(1 0 0 1 1319.3564 280.9713)"><tspan x="0" y="0" class="st16 st19">MONTA NEGÓCIOS E AGE </tspan><tspan x="11.2" y="18" class="st16 st19">PROFISSIONALMENTE</tspan></text>
<text transform="matrix(1 0 0 1 1319.3564 227.3856)"><tspan x="0" y="0" class="st16 st19">TEM PLANO, PACIÊNCIA </tspan><tspan x="30" y="18" class="st16 st19">E CONSTÂNCIA</tspan></text>
<text transform="matrix(1 0 0 1 1099.5961 280.9713)"><tspan x="0" y="0" class="st16 st19">VIVE NA INFORMALIDADE </tspan><tspan x="22.5" y="18" class="st16 st19">E BURLA AS LEIS</tspan></text>
<text transform="matrix(1 0 0 1 1088.3461 226.2391)"><tspan x="0" y="0" class="st16 st19">QUER ENRIQUECER DE FORMA </tspan><tspan x="26.2" y="18" class="st16 st19">RÁPIDA, MILAGROSA</tspan></text>
<text transform="matrix(1 0 0 1 1334.3564 171.4711)"><tspan x="0" y="0" class="st16 st19">SABE QUE É DANDO </tspan><tspan x="11.2" y="18" class="st16 st19">QUE SE RECEBE</tspan></text>
<text transform="matrix(1 0 0 1 1103.3461 170.3245)"><tspan x="0" y="0" class="st16 st19">SENTE MEDO DE PERDER </tspan><tspan x="-3.8" y="18" class="st16 st19">O DINHEIRO QUE GANHOU</tspan></text>
<text transform="matrix(1 0 0 1 1084.5961 336.7606)"><tspan x="0" y="0" class="st16 st19">QUER SER O MELHOR DO TIME </tspan><tspan x="7.5" y="18" class="st16 st19">E ESPERA RECONHECIMENTO</tspan></text>
<g>
	<g>
		<path class="st20" d="M650.3,513.8c0,0-70.5,11.2-73.7,83"/>
		<g>
			<polygon points="573.1,595.7 576.4,602 580.2,595.9 			"/>
		</g>
	</g>
</g>
<g>
	<g>
		<path class="st21" d="M647.8,407.5c0,0-57.3,6.4-60.2,77.5"/>
		<g>
			<polygon points="583.7,483.8 587.5,490.7 591.7,484 			"/>
		</g>
	</g>
</g>
<g>
	<g>
		<path class="st21" d="M656.5,621.1c0,0-82,16.9-86.2,88.5"/>
		<g>
			<polygon points="566.5,708.3 570.2,715.3 574.4,708.6 			"/>
		</g>
	</g>
</g>
<g>
	<g>
		<path class="st22" d="M647.8,296.2c0,0-43.5,11.9-45.6,83"/>
		<g>
			<polygon points="598.6,378 602.2,384.5 606,378.1 			"/>
		</g>
	</g>
</g>
<g>
	<g>
		<path class="st23" d="M657.5,186.9c0,0-0.3,0.2-0.8,0.5"/>
		<path class="st24" d="M655.1,188.7c-6.1,5.2-21.9,23.7-23.4,76.9"/>
		<path class="st23" d="M631.6,266.6c0,0.3,0,0.7,0,1"/>
		<g>
			<polygon points="627.1,266.1 631.5,274.2 636.3,266.3 			"/>
		</g>
	</g>
</g>
<g>
	<g>
		<line class="st1" x1="1500" y1="260.8" x2="1497.8" y2="260.8"/>
		<line class="st2" x1="1493.4" y1="260.8" x2="10.1" y2="260.8"/>
		<line class="st1" x1="7.9" y1="260.8" x2="5.7" y2="260.8"/>
	</g>
</g>
<g>
	<g>
		<line class="st1" x1="1500" y1="309.7" x2="1497.8" y2="309.7"/>
		<line class="st2" x1="1493.4" y1="309.7" x2="10.1" y2="309.7"/>
		<line class="st1" x1="7.9" y1="309.7" x2="5.7" y2="309.7"/>
	</g>
</g>
<g>
	<g>
		<line class="st1" x1="1500" y1="419.3" x2="1497.8" y2="419.3"/>
		<line class="st2" x1="1493.4" y1="419.3" x2="10.1" y2="419.3"/>
		<line class="st1" x1="7.9" y1="419.3" x2="5.7" y2="419.3"/>
	</g>
</g>
<g>
	<g>
		<line class="st1" x1="1500" y1="480.2" x2="1497.8" y2="480.2"/>
		<line class="st2" x1="1493.4" y1="480.2" x2="10.1" y2="480.2"/>
		<line class="st1" x1="7.9" y1="480.2" x2="5.7" y2="480.2"/>
	</g>
</g>
<g>
	<g>
		<line class="st1" x1="1500" y1="528.9" x2="1497.8" y2="528.9"/>
		<line class="st2" x1="1493.4" y1="528.9" x2="10.1" y2="528.9"/>
		<line class="st1" x1="7.9" y1="528.9" x2="5.7" y2="528.9"/>
	</g>
</g>
<g>
	<g>
		<line class="st1" x1="1500" y1="589.7" x2="1497.8" y2="589.7"/>
		<line class="st2" x1="1493.4" y1="589.7" x2="10.1" y2="589.7"/>
		<line class="st1" x1="7.9" y1="589.7" x2="5.7" y2="589.7"/>
	</g>
</g>
<g>
	<g>
		<line class="st1" x1="1500" y1="638.9" x2="1497.8" y2="638.9"/>
		<line class="st2" x1="1493.4" y1="638.9" x2="10.1" y2="638.9"/>
		<line class="st1" x1="7.9" y1="638.9" x2="5.7" y2="638.9"/>
	</g>
</g>
<text transform="matrix(1 0 0 1 775.6204 226.2393)" class="st16 st25">BENFEITORIA</text>
<text transform="matrix(1 0 0 1 785.5366 284.3254)" class="st16 st25">ESG</text>
<text transform="matrix(1 0 0 1 809.6239 336.7608)" class="st16 st25">GPTW</text>
<text transform="matrix(1 0 0 1 828.6544 395.2439)" class="st16 st25">ODS</text>
<text transform="matrix(1 0 0 1 855.2831 443.6577)" class="st16 st25">SABEDORIA</text>
<text transform="matrix(1 0 0 1 872.801 504.5047)" class="st16 st25">EXPERIÊNCIA</text>
<text transform="matrix(1 0 0 1 917.6605 614.1141)" class="st16 st25">BENS</text>
<text transform="matrix(1 0 0 1 934.4653 661.623)" class="st16 st25">LEGADO</text>
<text transform="matrix(1 0 0 1 360.7014 661.6232)" class="st16 st25">NASCER</text>
<text transform="matrix(1 0 0 1 370.0682 609.8192)" class="st16 st25">CARINHO</text>
<g>
	<g>
		<path class="st26" d="M431.6,668.3c0,0-18.5-23.6,6.7-42.8"/>
		<g>
			<polygon points="440.3,631.8 445.9,620.7 433.4,621.4 			"/>
		</g>
	</g>
</g>
<g>
	<g>
		<path class="st26" d="M475.8,558.7c0,0-18.5-23.6,6.7-42.8"/>
		<g>
			<polygon points="484.5,522.2 490,511.1 477.6,511.8 			"/>
		</g>
	</g>
</g>
<text transform="matrix(1 0 0 1 411.3905 551.9379)" class="st16 st25">TÉDIO</text>
<g>
	<g>
		<path class="st26" d="M448.6,610.2c0,0-7.6-23.4,14.7-37.1"/>
		<g>
			<polygon points="464.6,579.6 471.4,569.2 459,568.5 			"/>
		</g>
	</g>
</g>
<g>
	<g>
		<path class="st26" d="M491.3,500.6c0,0-7.6-23.4,14.7-37.1"/>
		<g>
			<polygon points="507.3,470 514.1,459.6 501.6,458.9 			"/>
		</g>
	</g>
</g>
<text transform="matrix(1 0 0 1 425.6284 500.3691)" class="st16 st25">ESTUDO</text>
<text transform="matrix(1 0 0 1 464.2795 443.6576)" class="st16 st25">AÇÃO</text>
<text transform="matrix(1 0 0 1 437.6464 391.287)" class="st16 st25">LIDERANÇA</text>
<g>
	<g>
		<path class="st26" d="M517.2,446.4c0,0-18.5-23.6,6.7-42.8"/>
		<g>
			<polygon points="525.9,409.9 531.4,398.8 519,399.5 			"/>
		</g>
	</g>
</g>
<g>
	<g>
		<path class="st26" d="M561.3,336.8c0,0-18.5-23.6,6.7-42.8"/>
		<g>
			<polygon points="570,300.3 575.6,289.2 563.2,289.9 			"/>
		</g>
	</g>
</g>
<text transform="matrix(1 0 0 1 397.9685 331.7185)" class="st16 st25">EMPREENDEDORISMO</text>
<g>
	<g>
		<path class="st26" d="M534.2,388.3c0,0-7.6-23.4,14.7-37.1"/>
		<g>
			<polygon points="550.2,357.7 557,347.3 544.6,346.6 			"/>
		</g>
	</g>
</g>
<g>
	<g>
		<path class="st26" d="M576.9,281.4c0,0-7.6-23.4,14.7-37.1"/>
		<g>
			<polygon points="592.9,250.9 599.6,240.4 587.2,239.8 			"/>
		</g>
	</g>
</g>
<g>
	<g>
		<path class="st26" d="M755.8,237.4c0,0,21.9,11.1,15.8,36.6"/>
		<g>
			<polygon points="766.1,270.3 768.7,282.5 778,274.1 			"/>
		</g>
	</g>
</g>
<g>
	<g>
		<path class="st26" d="M799.2,350.2c0,0,21.9,11.1,15.8,36.6"/>
		<g>
			<polygon points="809.5,383.2 812.1,395.3 821.3,387 			"/>
		</g>
	</g>
</g>
<g>
	<g>
		<path class="st26" d="M840.9,459.9c0,0,21.9,11.1,15.8,36.6"/>
		<g>
			<polygon points="851.2,492.8 853.7,505 863,496.6 			"/>
		</g>
	</g>
</g>
<g>
	<g>
		<path class="st26" d="M881.2,569c0,0,21.9,11.1,15.8,36.6"/>
		<g>
			<polygon points="891.5,601.9 894.1,614.1 903.4,605.8 			"/>
		</g>
	</g>
</g>
<text transform="matrix(1 0 0 1 448.2065 280.9716)" class="st16 st25">INVESTIMENTOS</text>
<g>
	<g>
		<path class="st26" d="M594.1,222.9c0,0-7.6-23.4,14.7-37.1"/>
		<g>
			<polygon points="610.1,192.4 616.9,181.9 604.4,181.3 			"/>
		</g>
	</g>
</g>
<g>
	<g>
		<path class="st26" d="M744.4,178.8c0,0,21.9,11.1,15.8,36.6"/>
		<g>
			<polygon points="754.7,211.8 757.3,223.9 766.5,215.6 			"/>
		</g>
	</g>
</g>
<g>
	<g>
		<path class="st26" d="M781.8,297.1c0,0,21.9,11.1,15.8,36.6"/>
		<g>
			<polygon points="792.1,330.1 794.7,342.2 804,333.9 			"/>
		</g>
	</g>
</g>
<g>
	<g>
		<path class="st26" d="M823,404.3c0,0,21.9,11.1,15.8,36.6"/>
		<g>
			<polygon points="833.3,437.2 835.9,449.4 845.1,441.1 			"/>
		</g>
	</g>
</g>
<g>
	<g>
		<path class="st26" d="M864.4,517.7c0,0,21.9,11.1,15.8,36.6"/>
		<g>
			<polygon points="874.7,550.6 877.2,562.8 886.5,554.4 			"/>
		</g>
	</g>
</g>
<g>
	<g>
		<path class="st26" d="M902.3,621.9c0,0,21.9,11.1,15.8,36.6"/>
		<g>
			<polygon points="912.6,654.9 915.2,667 924.5,658.7 			"/>
		</g>
	</g>
</g>
<text transform="matrix(1 0 0 1 465.4277 222.45)" class="st16 st25">RENTABILIDADE</text>
<path class="st27" d="M307.9,335.9c0,0-48.8,94.3-9.4,169.1H328v-68.3l10.3-55.5l0.2-43.4L307.9,335.9z"/>
<path id="SVGID_x5F_1_x5F_" class="st28" d="M351.6,721.8c0,0-112.5-220.6,34.2-578.5"/>
<text><textPath  xlink:href="#SVGID_x5F_1_x5F_" startOffset="40.631%">
<tspan  class="st13 st19">VIDA PRÓSPERA</tspan></textPath>
</text>
<g>
	<g>
		<path class="st29" d="M363.6,721.8c0,0-109.6-214.9,28.6-564.6"/>
		<g>
			<polygon points="400.9,164 397.8,143.3 381.4,156.3 			"/>
		</g>
	</g>
</g>
<path class="st27" d="M1062.6,507.6c0,0,43.7-61.6-15.4-175.9l-32.8,4.2l10.6,64l4.6,91.3l5.6,20L1062.6,507.6z"/>
<path id="SVGID_x5F_00000068660661934127861060000007522228400272873148_x5F_" class="st28" d="M959.2,148.8
	c0,0,147.1,199.3,60.8,576.3"/>
<text><textPath  xlink:href="#SVGID_x5F_00000068660661934127861060000007522228400272873148_x5F_" startOffset="36.743%">
<tspan  class="st13 st19">DESPEDIDA PRÓSPERA</tspan></textPath>
</text>
<g>
	<g>
		<path class="st29" d="M947.3,150.8c0,0,143.3,194.1,64.1,561.6"/>
		<g>
			<polygon points="1001.7,707.2 1008.2,727.1 1022.2,711.5 			"/>
		</g>
	</g>
</g>
<text transform="matrix(1 0 0 1 894.5828 556.2294)" class="st16 st25">OPORTUNIDADE</text>
<text transform="matrix(1 0 0 1 759.0905 507.6392)" class="st16 st17">Brincar</text>
<g>
	<g>
		<path class="st21" d="M692.9,614.1c0,0,82.3-18.3,86.2-96.3"/>
		<g>
			<polygon points="783,519.1 779.3,512.1 775.1,518.8 			"/>
		</g>
	</g>
</g>
<text transform="matrix(1 0 0 1 762.3405 619.1748)" class="st16 st17">Nascer</text>
<g>
	<g>
		<path class="st21" d="M692.9,725.6c0,0,82.3-18.3,86.2-96.3"/>
		<g>
			<polygon points="783,630.6 779.3,623.6 775.1,630.3 			"/>
		</g>
	</g>
</g>
<g>
	<g>
		<path class="st20" d="M698.5,507c0,0,48.5-22.7,50.6-97.5"/>
		<g>
			<polygon points="752.6,410.5 749.2,404.3 745.5,410.4 			"/>
		</g>
	</g>
</g>
<text transform="matrix(1 0 0 1 723.1769 399.9862)" class="st16 st17">Aprender</text>
<g>
	<g>
		<path class="st21" d="M697,396.2c0,0,27.7-11.8,28.9-94"/>
		<g>
			<polygon points="729.8,303.5 726,296.5 721.9,303.3 			"/>
		</g>
	</g>
</g>
<text transform="matrix(1 0 0 1 704.6705 281.4395)"><tspan x="0" y="0" class="st16 st17">Vender</tspan><tspan x="-2.5" y="13.2" class="st16 st18">(coisas)</tspan></text>
<g>
	<g>
		<path class="st21" d="M696,276.2c0,0,32.1-14.3,6.4-74.5"/>
		<g>
			<polygon points="706.5,201.1 700,196.5 699.2,204.3 			"/>
		</g>
	</g>
</g>
<text transform="matrix(1 0 0 1 673.9262 196.4558)" class="st16 st17">Investir</text>
<text transform="matrix(1 0 0 1 1155.8462 89.6161)" class="st16 st25">MENTE</text>
<text transform="matrix(1 0 0 1 1371.8568 89.6161)" class="st16 st25">MENTE</text>
</svg>
